<?xml version="1.0" standalone="no"?>
<!DOCTYPE svg PUBLIC "-//W3C//DTD SVG 20010904//EN"
 "http://www.w3.org/TR/2001/REC-SVG-20010904/DTD/svg10.dtd">
<svg version="1.0" xmlns="http://www.w3.org/2000/svg"
 width="128pt" height="128pt" viewBox="0 0 1024.000000 1024.000000"
 preserveAspectRatio="xMidYMid meet">

<g transform="translate(0.000000,1024.000000) scale(0.100000,-0.100000)"
fill="#000000" stroke="none">
<path d="M2115 7229 c-262 -56 -548 -180 -717 -312 -43 -33 -46 -55 -28 -189
15 -104 29 -306 23 -328 -3 -10 -24 -25 -51 -35 -71 -27 -240 -115 -273 -142
-34 -29 -36 -43 -9 -68 17 -15 38 -18 118 -19 53 -1 122 3 153 7 l57 8 27 -83
c16 -46 48 -132 73 -193 45 -108 46 -113 50 -237 3 -106 2 -128 -10 -128 -27
0 -56 -44 -108 -160 -55 -123 -84 -166 -206 -304 -44 -49 -125 -144 -182 -210
l-103 -120 58 -16 c321 -90 604 -491 708 -1004 13 -66 30 -164 36 -216 l12
-95 99 33 c160 54 260 73 415 79 205 8 324 -21 462 -116 l61 -41 11 27 c20 51
48 171 65 275 22 138 31 613 15 772 -15 143 -55 323 -79 356 -10 14 -72 71
-138 128 -150 129 -154 133 -154 203 0 31 -6 63 -14 74 -12 17 -17 18 -57 6
-24 -7 -61 -22 -83 -33 -43 -22 -56 -15 -56 32 0 26 33 161 43 177 4 6 32 6
74 0 137 -18 240 33 250 124 3 26 0 64 -7 84 -11 33 -10 40 4 50 9 7 16 22 16
34 0 11 4 21 9 21 23 0 92 -97 121 -171 61 -150 152 -259 257 -309 106 -50
246 -34 298 34 35 46 56 140 53 233 l-3 78 -95 3 c-52 2 -119 0 -147 -3 l-53
-6 0 -70 c0 -77 -5 -81 -60 -48 -54 32 -88 68 -127 134 -56 92 -90 131 -144
166 -44 29 -49 36 -49 70 0 21 -4 49 -10 63 -8 23 -6 27 23 42 43 22 67 44 67
62 0 8 -12 39 -26 68 -26 53 -26 55 -10 95 20 48 32 155 22 192 -3 14 -31 54
-61 89 -60 69 -60 69 25 88 100 22 274 72 323 92 47 20 54 31 38 57 -10 16
-165 30 -346 31 -66 0 -130 3 -141 6 -25 6 -34 25 -76 144 -40 116 -165 366
-204 407 -29 30 -36 33 -90 32 -33 0 -99 -9 -149 -20z m207 -76 c22 -25 101
-173 96 -178 -2 -3 -56 -14 -119 -25 -63 -10 -177 -38 -254 -60 -161 -48 -287
-62 -320 -37 -11 9 -18 17 -15 20 3 2 72 21 155 41 205 51 360 133 342 180 -6
14 -44 21 -104 19 -7 -1 -13 2 -13 6 0 13 42 30 95 40 82 15 120 13 137 -6z
m518 -562 l25 -8 -30 -6 c-16 -4 -100 -18 -185 -31 -85 -14 -220 -39 -300 -56
-80 -17 -228 -40 -330 -51 -102 -10 -256 -29 -342 -42 -87 -13 -158 -20 -158
-17 0 24 427 129 670 164 262 38 596 62 650 47z m-210 -176 c12 -20 19 -42 16
-50 -7 -20 -75 -19 -101 1 -57 43 -166 40 -219 -6 -27 -24 -43 -28 -121 -34
-49 -4 -104 -9 -121 -12 -26 -5 -32 -2 -37 16 -3 12 0 23 6 25 10 4 142 27
447 80 108 18 106 18 130 -20z m8 -202 c38 -61 142 -246 142 -254 0 -3 -11
-11 -24 -17 -26 -12 -192 -19 -203 -9 -3 4 0 13 7 22 10 12 10 15 -4 15 -9 0
-19 -12 -22 -27 -6 -20 -2 -31 16 -45 l23 -19 -29 -31 c-34 -36 -118 -78 -156
-78 -36 0 -38 -31 -3 -65 30 -31 98 -34 153 -6 20 10 43 16 50 14 19 -7 14
-38 -9 -59 -17 -16 -20 -26 -14 -59 4 -22 9 -55 12 -72 19 -121 -86 -143 -317
-68 -151 49 -271 105 -298 139 -34 44 -62 131 -62 193 0 54 -1 55 -18 40 -27
-25 -62 -21 -113 12 -97 63 -133 125 -132 232 0 87 17 121 67 134 52 12 80 -5
134 -83 40 -57 46 -62 81 -62 24 0 49 8 66 22 30 23 64 90 65 124 0 19 8 21
120 30 l120 9 0 -55 c0 -64 22 -114 63 -144 40 -30 121 -29 163 1 38 27 74
106 76 168 1 25 5 45 9 45 4 0 20 -21 37 -47z m-921 -439 c31 -21 46 -25 85
-21 l48 4 6 -36 c22 -132 104 -286 223 -416 18 -20 31 -38 29 -40 -5 -5 -401
164 -465 200 -29 15 -53 31 -53 34 0 19 31 191 39 220 10 33 37 81 46 81 2 0
21 -12 42 -26z m-111 -364 c54 -38 207 -114 339 -170 194 -82 319 -154 239
-137 -90 19 -156 29 -161 23 -9 -8 14 -119 49 -231 33 -108 53 -155 68 -155 5
0 39 27 75 61 l65 61 29 -66 c41 -90 143 -407 174 -541 32 -135 67 -318 63
-323 -2 -2 -11 18 -20 45 -35 102 -213 408 -302 518 -17 22 -104 140 -192 263
-183 257 -311 423 -411 537 -57 64 -71 86 -71 112 0 18 3 33 6 33 3 0 25 -14
50 -30z m-123 -367 c25 -43 62 -127 82 -188 21 -60 43 -116 50 -123 6 -7 58
-29 115 -48 57 -19 108 -38 113 -41 5 -3 -8 -22 -28 -43 l-38 -39 124 -133
c308 -331 493 -559 603 -745 17 -30 -5 -9 -44 40 -58 73 -381 424 -599 652
l-182 190 39 17 c22 9 43 21 47 27 4 7 -28 27 -87 55 -51 24 -98 49 -104 57
-6 8 -22 46 -34 84 -12 39 -42 120 -66 182 -63 159 -60 175 9 56z m927 -198
c44 -14 54 -35 119 -237 39 -120 56 -197 76 -330 33 -227 31 -245 -11 -113
-19 61 -80 222 -135 358 -55 137 -109 271 -119 298 l-20 49 28 -6 c15 -4 43
-12 62 -19z m303 -277 c21 -57 42 -131 47 -165 16 -97 27 -253 18 -253 -4 0
-8 10 -8 23 0 12 -24 129 -53 260 -30 130 -51 237 -47 237 3 0 23 -46 43 -102z"/>
<path d="M1707 6143 c-11 -10 -8 -93 3 -93 6 0 10 16 10 35 0 33 2 35 20 25
11 -6 27 -22 36 -36 15 -23 15 -26 0 -43 -20 -22 -20 -53 -2 -90 28 -54 69
-69 44 -17 -10 23 -9 33 6 61 15 28 16 39 6 69 -22 67 -94 119 -123 89z"/>
<path d="M3710 6433 c0 -2 8 -22 18 -45 15 -39 17 -95 17 -643 0 -595 0 -600
-22 -642 l-21 -43 158 0 159 0 -19 43 c-18 40 -20 80 -26 448 -4 222 -4 402
-1 399 2 -3 51 -160 107 -350 57 -190 107 -353 112 -363 13 -24 68 -19 79 8 5
11 44 144 88 295 44 151 91 313 105 360 l26 85 -6 -415 c-5 -393 -11 -465 -37
-497 -7 -10 24 -13 152 -13 l162 0 -18 33 c-17 30 -18 77 -18 663 0 588 1 633
18 651 9 11 17 21 17 24 0 2 -74 4 -165 4 l-165 0 -29 -95 c-16 -52 -59 -196
-96 -320 -77 -260 -76 -258 -81 -245 -2 6 -48 155 -102 333 l-97 323 -158 2
c-86 1 -157 1 -157 0z"/>
<path d="M5200 6430 c0 -3 7 -14 15 -24 8 -11 15 -34 15 -50 0 -60 -169 -1182
-185 -1225 -8 -24 -20 -50 -26 -58 -10 -11 17 -13 154 -13 l166 0 -21 47 c-18
40 -20 59 -14 131 3 46 9 88 12 93 3 5 54 9 114 9 125 0 118 6 127 -110 5 -64
2 -84 -15 -123 l-21 -47 170 0 169 0 -14 23 c-27 40 -44 132 -126 677 -44 294
-83 552 -86 572 -4 25 0 49 10 69 9 18 16 33 16 33 0 1 -104 1 -230 1 -127 0
-230 -2 -230 -5z m278 -613 c21 -152 36 -279 34 -282 -3 -3 -43 -5 -89 -5
l-84 0 6 33 c6 34 74 555 76 578 3 37 21 -70 57 -324z"/>
<path d="M6090 6434 c0 0 9 -19 20 -42 20 -41 21 -57 18 -655 -3 -564 -4 -615
-21 -644 l-18 -33 156 0 156 0 -15 29 c-23 43 -25 75 -30 441 l-5 335 58 -165
c32 -91 93 -272 137 -402 l79 -238 120 0 120 0 0 642 c0 617 1 645 19 683 11
22 21 42 23 45 2 3 -69 5 -157 5 -139 0 -159 -2 -154 -15 31 -71 33 -97 36
-438 2 -273 0 -344 -8 -319 -207 579 -265 741 -272 753 -7 12 -36 15 -135 17
-70 1 -127 2 -127 1z"/>
<path d="M7220 6434 c0 0 8 -16 18 -35 16 -31 17 -83 17 -649 0 -566 -1 -618
-17 -649 -10 -19 -18 -36 -18 -38 0 -1 74 -3 165 -3 l166 0 -18 33 c-17 29
-18 80 -21 640 -3 592 -2 609 18 654 11 25 20 46 20 47 0 0 -74 1 -165 1 -91
0 -165 0 -165 -1z"/>
<path d="M7864 6420 c2 -8 12 -33 20 -55 13 -34 15 -125 16 -617 0 -554 -1
-580 -20 -630 -11 -29 -20 -54 -20 -55 0 -2 76 -3 169 -3 l170 0 -27 48 c-27
47 -27 48 -30 291 l-3 243 108 -3 c82 -3 116 -9 136 -22 14 -9 29 -17 32 -17
3 0 5 68 5 150 0 83 -2 150 -4 150 -2 0 -23 -9 -47 -20 -34 -15 -66 -20 -136
-20 l-93 0 0 175 0 175 132 0 132 0 38 -37 c21 -20 40 -35 42 -32 3 3 6 69 7
147 l1 142 -316 2 c-278 3 -316 1 -312 -12z"/>
<path d="M8650 6434 c0 -2 15 -33 34 -68 19 -36 66 -163 104 -283 39 -120 92
-285 119 -368 l48 -150 0 -200 c0 -186 -2 -203 -22 -249 -13 -27 -23 -50 -23
-52 0 -2 79 -4 175 -4 l174 0 -27 52 c-27 52 -27 54 -27 253 l1 200 106 340
c122 389 140 440 173 490 14 20 25 37 25 38 0 1 -72 2 -160 2 -88 0 -160 -1
-160 -1 0 -1 7 -15 15 -30 8 -16 15 -39 15 -51 0 -35 -129 -527 -136 -520 -11
11 -134 487 -134 517 0 20 7 46 16 58 l15 22 -148 1 c-81 0 -156 2 -165 4 -10
2 -18 1 -18 -1z"/>
<path d="M4583 4571 c-21 -13 -36 -33 -43 -58 -19 -61 1 -112 73 -194 71 -81
87 -106 87 -134 0 -69 -79 -64 -85 6 -2 31 -5 34 -39 37 l-36 3 0 -56 c0 -46
4 -60 24 -80 47 -47 158 -41 192 10 22 34 29 96 14 139 -6 19 -43 70 -81 112
-62 69 -70 81 -67 112 6 69 68 71 68 2 0 -39 1 -40 35 -40 50 0 50 0 48 55 -4
68 -33 97 -105 102 -41 3 -60 -1 -85 -16z"/>
<path d="M4960 4325 l0 -255 45 0 45 0 0 255 0 255 -45 0 -45 0 0 -255z"/>
<path d="M5240 4325 l0 -255 40 0 40 0 1 168 0 167 29 -145 c39 -195 38 -190
58 -190 15 0 23 29 54 178 l36 177 1 -177 1 -178 40 0 40 0 0 255 0 255 -53 0
-54 0 -29 -130 c-16 -71 -32 -130 -36 -130 -5 0 -8 8 -8 18 0 9 -12 68 -26
130 l-26 112 -54 0 -54 0 0 -255z"/>
<path d="M5780 4325 l0 -255 45 0 45 0 0 99 0 98 52 5 c42 4 57 11 80 37 26
29 28 37 28 122 0 87 -1 92 -29 120 -28 28 -33 29 -125 29 l-96 0 0 -255z
m158 173 c7 -7 12 -38 12 -69 0 -64 -16 -89 -56 -89 -24 0 -24 2 -24 85 l0 85
28 0 c15 0 33 -5 40 -12z"/>
<path d="M6200 4325 l0 -255 101 0 100 0 -3 38 -3 37 -52 0 -53 0 0 218 0 217
-45 0 -45 0 0 -255z"/>
<path d="M6493 4568 c2 -7 25 -77 51 -155 42 -130 46 -150 46 -242 l0 -101 40
0 40 0 0 108 c0 101 3 116 44 237 24 72 47 138 51 148 6 15 1 17 -37 17 l-45
0 -21 -74 c-12 -41 -22 -81 -22 -90 0 -41 -18 -8 -39 74 l-23 90 -45 0 c-32 0
-44 -4 -40 -12z"/>
<path d="M7170 4325 l0 -255 41 0 42 0 -5 177 c-3 98 -2 168 2 158 3 -11 20
-91 36 -178 26 -143 31 -157 49 -155 17 3 24 27 56 178 l37 175 1 -177 1 -178
40 0 40 0 0 255 0 255 -53 0 -54 0 -29 -130 c-16 -71 -32 -130 -35 -130 -4 0
-9 16 -12 36 -4 20 -16 79 -28 130 l-21 94 -54 0 -54 0 0 -255z"/>
<path d="M7756 4568 c-3 -7 -19 -112 -36 -233 -17 -121 -34 -230 -37 -242 -5
-21 -2 -23 35 -23 40 0 41 1 47 38 11 62 12 63 52 60 37 -3 38 -4 43 -48 l5
-45 44 -3 43 -3 -6 43 c-4 24 -22 138 -40 253 l-32 210 -57 3 c-40 2 -58 -1
-61 -10z m87 -305 c4 -20 0 -23 -30 -23 -32 0 -34 2 -29 28 4 21 22 154 27
207 1 5 7 -35 15 -90 7 -55 15 -110 17 -122z"/>
<path d="M8110 4325 l0 -255 40 0 40 0 1 158 0 157 48 -155 49 -155 41 -3 41
-3 0 255 0 256 -40 0 -40 0 -1 -152 0 -153 -35 115 c-19 63 -39 132 -45 153
-9 36 -11 37 -54 37 l-45 0 0 -255z"/>
</g>
</svg>
